<?xml version="1.0" encoding="utf-8"?>
<!-- Generator: Adobe Illustrator 16.0.0, SVG Export Plug-In . SVG Version: 6.00 Build 0)  -->
<!DOCTYPE svg PUBLIC "-//W3C//DTD SVG 1.1//EN" "http://www.w3.org/Graphics/SVG/1.1/DTD/svg11.dtd">
<svg version="1.1" id="Layer_1" xmlns="http://www.w3.org/2000/svg" xmlns:xlink="http://www.w3.org/1999/xlink" x="0px" y="0px"
	 width="877.778px" height="768px" viewBox="0 0 877.778 768" enable-background="new 0 0 877.778 768" xml:space="preserve">
<g>
	<path opacity="0.1" fill="#47B3ED" d="M623.326,214.899c0,93.684-75.948,169.63-169.63,169.63
		c-93.682,0-169.628-75.946-169.628-169.63c0-93.678,75.946-169.625,169.628-169.625
		C547.378,45.275,623.326,121.221,623.326,214.899z"/>
	<path opacity="0.1" fill="#47B3ED" d="M753.198,284.216c0,93.685-75.944,169.626-169.632,169.626
		c-93.686,0-169.627-75.941-169.627-169.626c0-93.684,75.942-169.627,169.627-169.627
		C677.254,114.589,753.198,190.533,753.198,284.216z"/>
	<path opacity="0.1" fill="#47B3ED" d="M753.198,460.055c0,93.684-75.944,169.628-169.632,169.628
		c-93.686,0-169.627-75.944-169.627-169.628c0-93.683,75.942-169.625,169.627-169.625
		C677.254,290.43,753.198,366.372,753.198,460.055z"/>
	<path opacity="0.1" fill="#47B3ED" d="M623.326,535.932c0,93.689-75.948,169.632-169.63,169.632
		c-93.682,0-169.628-75.942-169.628-169.632c0-93.679,75.946-169.625,169.628-169.625
		C547.378,366.307,623.326,442.253,623.326,535.932z"/>
	<path opacity="0.1" fill="#47B3ED" d="M480.315,460.055c0,93.684-75.938,169.628-169.625,169.628
		c-93.68,0-169.626-75.944-169.626-169.628c0-93.683,75.946-169.625,169.626-169.625
		C404.377,290.43,480.315,366.372,480.315,460.055z"/>
	<path opacity="0.1" fill="#47B3ED" d="M480.315,284.216c0,93.685-75.938,169.626-169.625,169.626
		c-93.68,0-169.626-75.941-169.626-169.626c0-93.684,75.946-169.627,169.626-169.627
		C404.377,114.589,480.315,190.533,480.315,284.216z"/>
</g>
<g>
	<path fill="#8A8A8A" d="M600.625,311.356c0,1.378-0.204,2.45-0.611,3.213c-0.758,1.393-2.197,2.09-4.318,2.09
		c-1.225,0-2.271-0.332-3.139-0.995s-1.303-1.843-1.303-3.541v-1.167h2.079v1.167c0,0.89,0.198,1.558,0.596,2.007
		c0.397,0.448,1.016,0.672,1.855,0.672c1.181,0,1.953-0.404,2.317-1.212c0.223-0.496,0.334-1.434,0.334-2.812v-10.883h2.189V311.356
		z"/>
	<path fill="#8A8A8A" d="M617.433,302.23c1.082,1.445,1.623,3.294,1.623,5.547c0,2.438-0.619,4.465-1.856,6.081
		c-1.452,1.897-3.523,2.846-6.214,2.846c-2.513,0-4.487-0.83-5.925-2.49c-1.282-1.601-1.923-3.624-1.923-6.069
		c0-2.208,0.548-4.098,1.645-5.669c1.408-2.016,3.491-3.023,6.248-3.023C613.913,299.451,616.047,300.377,617.433,302.23z
		 M615.481,312.639c0.871-1.398,1.307-3.005,1.307-4.823c0-1.921-0.502-3.467-1.506-4.639c-1.005-1.172-2.378-1.758-4.119-1.758
		c-1.689,0-3.068,0.58-4.135,1.741c-1.067,1.161-1.601,2.872-1.601,5.134c0,1.81,0.457,3.336,1.372,4.578s2.399,1.863,4.452,1.863
		C613.201,314.736,614.611,314.037,615.481,312.639z"/>
	<path fill="#8A8A8A" d="M621.635,299.896h7.061c1.925,0,3.293,0.571,4.106,1.712c0.478,0.674,0.716,1.453,0.716,2.334
		c0,1.03-0.293,1.875-0.878,2.534c-0.304,0.349-0.741,0.667-1.312,0.956c0.837,0.319,1.463,0.678,1.879,1.078
		c0.733,0.711,1.1,1.694,1.1,2.946c0,1.053-0.331,2.005-0.995,2.857c-0.991,1.275-2.568,1.912-4.731,1.912h-6.945V299.896z
		 M627.868,306.799c0.944,0,1.678-0.129,2.202-0.389c0.823-0.408,1.235-1.142,1.235-2.201c0-1.067-0.438-1.786-1.314-2.157
		c-0.494-0.207-1.228-0.311-2.201-0.311h-3.987v5.058H627.868z M628.616,314.336c1.369,0,2.346-0.393,2.929-1.178
		c0.366-0.497,0.55-1.097,0.55-1.801c0-1.186-0.535-1.993-1.604-2.423c-0.568-0.229-1.32-0.344-2.256-0.344h-4.432v5.747H628.616z"
		/>
	<path fill="#8A8A8A" d="M643.412,299.896h7.308c1.444,0,2.61,0.409,3.499,1.228c0.889,0.819,1.332,1.97,1.332,3.452
		c0,1.275-0.396,2.384-1.188,3.33c-0.793,0.945-2.006,1.417-3.639,1.417h-5.1v6.903h-2.212V299.896z M651.992,302.141
		c-0.485-0.229-1.151-0.344-1.997-0.344h-4.371v5.658h4.371c0.985,0,1.785-0.211,2.4-0.634c0.614-0.422,0.921-1.167,0.921-2.234
		C653.316,303.386,652.875,302.571,651.992,302.141z"/>
	<path fill="#8A8A8A" d="M658.386,299.896h2.212v14.384h8.192v1.945h-10.404V299.896z"/>
	<path fill="#8A8A8A" d="M675.812,299.896h2.497l5.927,16.33h-2.424l-1.704-4.891h-6.407l-1.771,4.891h-2.268L675.812,299.896z
		 M679.48,309.534l-2.515-7.214l-2.612,7.214H679.48z"/>
	<path fill="#8A8A8A" d="M697.781,301.085c1.128,1.089,1.754,2.327,1.878,3.712h-2.156c-0.24-1.052-0.719-1.886-1.436-2.501
		c-0.717-0.615-1.723-0.922-3.019-0.922c-1.579,0-2.854,0.565-3.826,1.696c-0.972,1.131-1.457,2.865-1.457,5.201
		c0,1.914,0.438,3.466,1.315,4.656s2.186,1.786,3.926,1.786c1.602,0,2.821-0.626,3.658-1.879c0.444-0.659,0.775-1.526,0.994-2.601
		h2.156c-0.19,1.719-0.82,3.161-1.89,4.324c-1.282,1.401-3.012,2.101-5.188,2.101c-1.875,0-3.45-0.575-4.725-1.724
		c-1.678-1.52-2.517-3.867-2.517-7.042c0-2.41,0.63-4.386,1.891-5.929c1.362-1.676,3.24-2.514,5.636-2.514
		C695.067,299.451,696.653,299.996,697.781,301.085z"/>
	<path fill="#8A8A8A" d="M702.884,299.896h11.85v2.001h-9.693v4.958H714v1.89h-8.96v5.536h9.86v1.945h-12.017V299.896z"/>
	<path fill="#8A8A8A" d="M717.802,299.896h3.169l4.695,13.806l4.662-13.806h3.147v16.33h-2.112v-9.638
		c0-0.333,0.008-0.886,0.022-1.656c0.015-0.771,0.022-1.597,0.022-2.479l-4.662,13.773h-2.192l-4.707-13.773v0.5
		c0,0.4,0.012,1.01,0.033,1.829c0.022,0.819,0.034,1.421,0.034,1.807v9.638h-2.112V299.896z"/>
	<path fill="#8A8A8A" d="M737.032,299.896h11.85v2.001h-9.693v4.958h8.96v1.89h-8.96v5.536h9.86v1.945h-12.017V299.896z"/>
	<path fill="#8A8A8A" d="M752.007,299.896h2.605l8.144,13.194v-13.194h2.112v16.33h-2.485l-8.264-13.178v13.178h-2.112V299.896z"/>
	<path fill="#8A8A8A" d="M780.319,299.896v1.945h-5.503v14.384h-2.234v-14.384h-5.502v-1.945H780.319z"/>
	<path fill="#8A8A8A" d="M623.934,327.215h2.497l5.927,16.33h-2.424l-1.704-4.891h-6.407l-1.771,4.891h-2.268L623.934,327.215z
		 M627.602,336.853l-2.515-7.214l-2.612,7.214H627.602z"/>
	<path fill="#8A8A8A" d="M635.798,338.276c0.05,0.926,0.26,1.679,0.631,2.256c0.707,1.083,1.953,1.623,3.737,1.623
		c0.8,0,1.528-0.118,2.185-0.355c1.271-0.459,1.906-1.282,1.906-2.468c0-0.89-0.27-1.523-0.808-1.901
		c-0.546-0.371-1.4-0.693-2.563-0.967l-2.143-0.5c-1.4-0.326-2.391-0.686-2.972-1.079c-1.006-0.682-1.508-1.701-1.508-3.057
		c0-1.468,0.494-2.672,1.481-3.613c0.988-0.941,2.388-1.412,4.197-1.412c1.666,0,3.081,0.414,4.246,1.24s1.747,2.147,1.747,3.963
		h-2.079c-0.106-0.875-0.334-1.545-0.682-2.012c-0.646-0.852-1.744-1.278-3.293-1.278c-1.251,0-2.149,0.274-2.697,0.823
		c-0.547,0.548-0.82,1.186-0.82,1.912c0,0.8,0.323,1.386,0.97,1.756c0.424,0.237,1.382,0.533,2.876,0.889l2.219,0.522
		c1.069,0.252,1.896,0.597,2.477,1.034c1.006,0.763,1.508,1.872,1.508,3.324c0,1.809-0.641,3.102-1.924,3.88
		c-1.283,0.778-2.773,1.167-4.472,1.167c-1.98,0-3.531-0.519-4.651-1.556c-1.12-1.03-1.67-2.427-1.647-4.191H635.798z"/>
	<path fill="#8A8A8A" d="M650.982,338.276c0.05,0.926,0.26,1.679,0.631,2.256c0.707,1.083,1.953,1.623,3.737,1.623
		c0.8,0,1.528-0.118,2.185-0.355c1.271-0.459,1.906-1.282,1.906-2.468c0-0.89-0.27-1.523-0.808-1.901
		c-0.546-0.371-1.4-0.693-2.563-0.967l-2.143-0.5c-1.4-0.326-2.391-0.686-2.972-1.079c-1.006-0.682-1.508-1.701-1.508-3.057
		c0-1.468,0.494-2.672,1.481-3.613c0.988-0.941,2.388-1.412,4.197-1.412c1.666,0,3.081,0.414,4.246,1.24s1.747,2.147,1.747,3.963
		h-2.079c-0.106-0.875-0.334-1.545-0.682-2.012c-0.646-0.852-1.744-1.278-3.293-1.278c-1.251,0-2.149,0.274-2.697,0.823
		c-0.547,0.548-0.82,1.186-0.82,1.912c0,0.8,0.323,1.386,0.97,1.756c0.424,0.237,1.382,0.533,2.876,0.889l2.219,0.522
		c1.069,0.252,1.896,0.597,2.477,1.034c1.006,0.763,1.508,1.872,1.508,3.324c0,1.809-0.641,3.102-1.924,3.88
		c-1.283,0.778-2.773,1.167-4.472,1.167c-1.98,0-3.531-0.519-4.651-1.556c-1.12-1.03-1.67-2.427-1.647-4.191H650.982z"/>
	<path fill="#8A8A8A" d="M665.223,327.215h2.234v16.33h-2.234V327.215z"/>
	<path fill="#8A8A8A" d="M672.493,338.276c0.05,0.926,0.26,1.679,0.631,2.256c0.707,1.083,1.953,1.623,3.737,1.623
		c0.8,0,1.528-0.118,2.185-0.355c1.271-0.459,1.906-1.282,1.906-2.468c0-0.89-0.27-1.523-0.808-1.901
		c-0.546-0.371-1.4-0.693-2.563-0.967l-2.143-0.5c-1.4-0.326-2.391-0.686-2.972-1.079c-1.006-0.682-1.508-1.701-1.508-3.057
		c0-1.468,0.494-2.672,1.481-3.613c0.988-0.941,2.388-1.412,4.197-1.412c1.666,0,3.081,0.414,4.246,1.24s1.747,2.147,1.747,3.963
		h-2.079c-0.106-0.875-0.334-1.545-0.682-2.012c-0.646-0.852-1.744-1.278-3.293-1.278c-1.251,0-2.149,0.274-2.697,0.823
		c-0.547,0.548-0.82,1.186-0.82,1.912c0,0.8,0.323,1.386,0.97,1.756c0.424,0.237,1.382,0.533,2.876,0.889l2.219,0.522
		c1.069,0.252,1.896,0.597,2.477,1.034c1.006,0.763,1.508,1.872,1.508,3.324c0,1.809-0.641,3.102-1.924,3.88
		c-1.283,0.778-2.773,1.167-4.472,1.167c-1.98,0-3.531-0.519-4.651-1.556c-1.12-1.03-1.67-2.427-1.647-4.191H672.493z"/>
	<path fill="#8A8A8A" d="M698.104,327.215v1.945h-5.503v14.384h-2.234v-14.384h-5.502v-1.945H698.104z"/>
	<path fill="#8A8A8A" d="M703.226,327.215h2.497l5.927,16.33h-2.424l-1.704-4.891h-6.407l-1.771,4.891h-2.268L703.226,327.215z
		 M706.894,336.853l-2.515-7.214l-2.612,7.214H706.894z"/>
	<path fill="#8A8A8A" d="M713.645,327.215h2.605l8.144,13.194v-13.194h2.112v16.33h-2.485l-8.264-13.178v13.178h-2.112V327.215z"/>
	<path fill="#8A8A8A" d="M741.636,328.405c1.128,1.089,1.754,2.327,1.878,3.712h-2.156c-0.24-1.052-0.719-1.886-1.436-2.501
		c-0.717-0.615-1.723-0.922-3.019-0.922c-1.579,0-2.854,0.565-3.826,1.696c-0.972,1.131-1.457,2.865-1.457,5.201
		c0,1.914,0.438,3.466,1.315,4.656s2.186,1.786,3.926,1.786c1.602,0,2.821-0.626,3.658-1.879c0.444-0.659,0.775-1.526,0.994-2.601
		h2.156c-0.19,1.719-0.82,3.161-1.89,4.324c-1.282,1.401-3.012,2.101-5.188,2.101c-1.875,0-3.45-0.575-4.725-1.724
		c-1.678-1.52-2.517-3.867-2.517-7.042c0-2.41,0.63-4.386,1.891-5.929c1.362-1.676,3.24-2.514,5.636-2.514
		C738.922,326.771,740.508,327.315,741.636,328.405z"/>
	<path fill="#8A8A8A" d="M746.737,327.215h11.85v2.001h-9.693v4.958h8.96v1.89h-8.96v5.536h9.86v1.945h-12.017V327.215z"/>
</g>
<g>
	<path fill="#8A8A8A" d="M601.92,548.145h11.85v2.001h-9.693v4.958h8.96v1.89h-8.96v5.536h9.86v1.945H601.92V548.145z"/>
	<path fill="#8A8A8A" d="M616.993,548.145h6.527c2.216,0,3.935,0.797,5.155,2.391c1.09,1.438,1.635,3.279,1.635,5.524
		c0,1.734-0.322,3.302-0.965,4.702c-1.134,2.476-3.083,3.713-5.848,3.713h-6.505V548.145z M623.087,562.585
		c0.731,0,1.333-0.078,1.804-0.233c0.841-0.289,1.529-0.845,2.065-1.668c0.428-0.659,0.735-1.504,0.924-2.534
		c0.108-0.615,0.163-1.186,0.163-1.712c0-2.023-0.394-3.594-1.18-4.713s-2.053-1.679-3.799-1.679h-3.837v12.539H623.087z"/>
	<path fill="#8A8A8A" d="M635.725,548.145v10.094c0,1.186,0.225,2.172,0.673,2.957c0.664,1.186,1.785,1.778,3.361,1.778
		c1.89,0,3.174-0.641,3.854-1.923c0.365-0.696,0.549-1.634,0.549-2.812v-10.094h2.234v9.171c0,2.009-0.271,3.554-0.814,4.636
		c-0.997,1.972-2.878,2.957-5.645,2.957s-4.644-0.985-5.633-2.957c-0.543-1.082-0.814-2.627-0.814-4.636v-9.171H635.725z"/>
	<path fill="#8A8A8A" d="M661.325,549.334c1.128,1.09,1.754,2.327,1.878,3.713h-2.156c-0.24-1.052-0.719-1.886-1.436-2.501
		s-1.723-0.923-3.019-0.923c-1.579,0-2.854,0.565-3.826,1.697c-0.972,1.131-1.457,2.864-1.457,5.201
		c0,1.913,0.438,3.465,1.315,4.656c0.877,1.19,2.186,1.785,3.926,1.785c1.602,0,2.821-0.626,3.658-1.879
		c0.444-0.659,0.775-1.526,0.994-2.601h2.156c-0.19,1.719-0.82,3.16-1.89,4.324c-1.282,1.4-3.012,2.101-5.188,2.101
		c-1.875,0-3.45-0.574-4.725-1.724c-1.678-1.521-2.517-3.868-2.517-7.042c0-2.41,0.63-4.386,1.891-5.929
		c1.362-1.676,3.24-2.514,5.636-2.514C658.611,547.7,660.197,548.245,661.325,549.334z"/>
	<path fill="#8A8A8A" d="M670.982,548.145h2.497l5.927,16.33h-2.424l-1.704-4.892h-6.407l-1.771,4.892h-2.268L670.982,548.145z
		 M674.65,557.782l-2.515-7.214l-2.612,7.214H674.65z"/>
	<path fill="#8A8A8A" d="M691.595,548.145v1.945h-5.503v14.385h-2.234V550.09h-5.502v-1.945H691.595z"/>
	<path fill="#8A8A8A" d="M694.129,548.145h2.234v16.33h-2.234V548.145z"/>
	<path fill="#8A8A8A" d="M713.404,550.479c1.082,1.445,1.623,3.294,1.623,5.547c0,2.438-0.619,4.465-1.856,6.08
		c-1.452,1.897-3.523,2.846-6.214,2.846c-2.513,0-4.487-0.829-5.925-2.489c-1.282-1.601-1.923-3.624-1.923-6.069
		c0-2.209,0.548-4.099,1.645-5.67c1.408-2.016,3.491-3.023,6.248-3.023C709.885,547.7,712.019,548.627,713.404,550.479z
		 M711.453,560.888c0.871-1.397,1.307-3.006,1.307-4.822c0-1.922-0.502-3.468-1.506-4.64c-1.005-1.172-2.378-1.758-4.119-1.758
		c-1.689,0-3.068,0.58-4.135,1.741c-1.067,1.16-1.601,2.872-1.601,5.134c0,1.811,0.457,3.336,1.372,4.578
		c0.915,1.243,2.399,1.864,4.452,1.864C709.173,562.985,710.583,562.286,711.453,560.888z"/>
	<path fill="#8A8A8A" d="M717.662,548.145h2.605l8.144,13.194v-13.194h2.112v16.33h-2.485l-8.264-13.178v13.178h-2.112V548.145z"/>
	<path fill="#8A8A8A" d="M738.869,548.145h2.497l5.927,16.33h-2.424l-1.704-4.892h-6.407l-1.771,4.892h-2.268L738.869,548.145z
		 M742.537,557.782l-2.515-7.214l-2.612,7.214H742.537z"/>
	<path fill="#8A8A8A" d="M749.288,548.145h2.212v14.385h8.192v1.945h-10.404V548.145z"/>
	<path fill="#8A8A8A" d="M631.396,586.524c0.05,0.927,0.26,1.679,0.631,2.257c0.707,1.082,1.953,1.623,3.737,1.623
		c0.8,0,1.528-0.118,2.185-0.355c1.271-0.46,1.906-1.282,1.906-2.468c0-0.89-0.27-1.523-0.808-1.901
		c-0.546-0.37-1.4-0.692-2.563-0.967l-2.143-0.5c-1.4-0.326-2.391-0.686-2.972-1.078c-1.006-0.682-1.508-1.701-1.508-3.058
		c0-1.467,0.494-2.671,1.481-3.612c0.988-0.941,2.388-1.412,4.197-1.412c1.666,0,3.081,0.413,4.246,1.239
		c1.165,0.827,1.747,2.147,1.747,3.963h-2.079c-0.106-0.874-0.334-1.545-0.682-2.012c-0.646-0.852-1.744-1.278-3.293-1.278
		c-1.251,0-2.149,0.274-2.697,0.822c-0.547,0.549-0.82,1.187-0.82,1.912c0,0.801,0.323,1.386,0.97,1.757
		c0.424,0.237,1.382,0.533,2.876,0.889l2.219,0.522c1.069,0.253,1.896,0.597,2.477,1.034c1.006,0.764,1.508,1.871,1.508,3.324
		c0,1.808-0.641,3.101-1.924,3.879s-2.773,1.167-4.472,1.167c-1.98,0-3.531-0.519-4.651-1.556c-1.12-1.03-1.67-2.427-1.647-4.191
		H631.396z"/>
	<path fill="#8A8A8A" d="M647.524,575.464v10.094c0,1.186,0.225,2.172,0.673,2.957c0.664,1.186,1.785,1.778,3.361,1.778
		c1.89,0,3.174-0.641,3.854-1.923c0.365-0.696,0.549-1.634,0.549-2.812v-10.094h2.234v9.171c0,2.009-0.271,3.554-0.814,4.636
		c-0.997,1.972-2.878,2.957-5.645,2.957s-4.644-0.985-5.633-2.957c-0.543-1.082-0.814-2.627-0.814-4.636v-9.171H647.524z"/>
	<path fill="#8A8A8A" d="M661.787,575.464h7.308c1.444,0,2.61,0.41,3.499,1.229c0.889,0.819,1.332,1.97,1.332,3.452
		c0,1.274-0.396,2.384-1.188,3.329c-0.793,0.944-2.006,1.417-3.639,1.417h-5.1v6.903h-2.212V575.464z M670.367,577.71
		c-0.485-0.229-1.151-0.345-1.997-0.345h-4.371v5.658h4.371c0.985,0,1.785-0.211,2.4-0.634c0.614-0.423,0.921-1.167,0.921-2.234
		C671.691,578.955,671.25,578.14,670.367,577.71z"/>
	<path fill="#8A8A8A" d="M676.972,575.464h7.308c1.444,0,2.61,0.41,3.499,1.229c0.889,0.819,1.332,1.97,1.332,3.452
		c0,1.274-0.396,2.384-1.188,3.329c-0.793,0.944-2.006,1.417-3.639,1.417h-5.1v6.903h-2.212V575.464z M685.552,577.71
		c-0.485-0.229-1.151-0.345-1.997-0.345h-4.371v5.658h4.371c0.985,0,1.785-0.211,2.4-0.634c0.614-0.423,0.921-1.167,0.921-2.234
		C686.876,578.955,686.435,578.14,685.552,577.71z"/>
	<path fill="#8A8A8A" d="M705.396,577.799c1.082,1.445,1.623,3.294,1.623,5.547c0,2.438-0.619,4.465-1.856,6.08
		c-1.452,1.897-3.523,2.846-6.214,2.846c-2.513,0-4.487-0.829-5.925-2.489c-1.282-1.601-1.923-3.624-1.923-6.069
		c0-2.209,0.548-4.099,1.645-5.67c1.408-2.016,3.491-3.023,6.248-3.023C701.876,575.02,704.01,575.946,705.396,577.799z
		 M703.444,588.207c0.871-1.397,1.307-3.006,1.307-4.822c0-1.922-0.502-3.468-1.506-4.64c-1.005-1.172-2.378-1.758-4.119-1.758
		c-1.689,0-3.068,0.58-4.135,1.741c-1.067,1.16-1.601,2.872-1.601,5.134c0,1.811,0.457,3.336,1.372,4.578
		c0.915,1.243,2.399,1.864,4.452,1.864C701.164,590.305,702.574,589.605,703.444,588.207z"/>
	<path fill="#8A8A8A" d="M709.92,575.464h7.423c1.223,0,2.23,0.182,3.023,0.545c1.506,0.696,2.26,1.982,2.26,3.857
		c0,0.979-0.202,1.778-0.606,2.401c-0.403,0.622-0.969,1.122-1.695,1.5c0.638,0.26,1.117,0.601,1.44,1.023
		c0.322,0.422,0.502,1.107,0.539,2.057l0.077,2.189c0.022,0.622,0.074,1.086,0.156,1.39c0.133,0.519,0.37,0.853,0.711,1v0.367
		h-2.712c-0.074-0.141-0.134-0.322-0.178-0.545c-0.045-0.222-0.082-0.651-0.111-1.289l-0.134-2.724
		c-0.05-1.067-0.436-1.782-1.155-2.146c-0.411-0.2-1.055-0.3-1.934-0.3h-4.893v7.003h-2.212V575.464z M717.104,582.945
		c1.009,0,1.808-0.207,2.395-0.622c0.588-0.415,0.881-1.164,0.881-2.246c0-1.163-0.41-1.956-1.232-2.379
		c-0.439-0.222-1.026-0.333-1.762-0.333h-5.254v5.58H717.104z"/>
	<path fill="#8A8A8A" d="M737.566,575.464v1.945h-5.503v14.385h-2.234v-14.385h-5.502v-1.945H737.566z"/>
</g>
<g>
	<path fill="#8A8A8A" d="M105.164,549.334c1.128,1.09,1.754,2.327,1.879,3.713h-2.157c-0.24-1.052-0.719-1.886-1.436-2.501
		s-1.723-0.923-3.019-0.923c-1.579,0-2.854,0.565-3.826,1.697c-0.972,1.131-1.457,2.864-1.457,5.201
		c0,1.913,0.438,3.465,1.315,4.656c0.878,1.19,2.187,1.785,3.926,1.785c1.602,0,2.821-0.626,3.658-1.879
		c0.444-0.659,0.775-1.526,0.994-2.601h2.156c-0.19,1.719-0.82,3.16-1.89,4.324c-1.282,1.4-3.011,2.101-5.187,2.101
		c-1.876,0-3.45-0.574-4.726-1.724c-1.677-1.521-2.516-3.868-2.516-7.042c0-2.41,0.63-4.386,1.89-5.929
		c1.362-1.676,3.241-2.514,5.636-2.514C102.45,547.7,104.036,548.245,105.164,549.334z"/>
	<path fill="#8A8A8A" d="M114.82,548.145h2.497l5.927,16.33h-2.423l-1.705-4.892h-6.406l-1.771,4.892h-2.268L114.82,548.145z
		 M118.488,557.782l-2.514-7.214l-2.612,7.214H118.488z"/>
	<path fill="#8A8A8A" d="M126.685,559.205c0.051,0.927,0.261,1.679,0.632,2.257c0.707,1.082,1.952,1.623,3.737,1.623
		c0.8,0,1.527-0.118,2.185-0.355c1.271-0.46,1.906-1.282,1.906-2.468c0-0.89-0.27-1.523-0.808-1.901
		c-0.546-0.37-1.4-0.692-2.563-0.967l-2.143-0.5c-1.4-0.326-2.391-0.686-2.973-1.078c-1.005-0.682-1.508-1.701-1.508-3.058
		c0-1.467,0.494-2.671,1.482-3.612s2.387-1.412,4.197-1.412c1.666,0,3.081,0.413,4.246,1.239c1.164,0.827,1.747,2.147,1.747,3.963
		h-2.079c-0.106-0.874-0.334-1.545-0.682-2.012c-0.647-0.852-1.745-1.278-3.294-1.278c-1.25,0-2.149,0.274-2.696,0.822
		c-0.547,0.549-0.82,1.187-0.82,1.912c0,0.801,0.323,1.386,0.969,1.757c0.424,0.237,1.383,0.533,2.876,0.889l2.219,0.522
		c1.07,0.253,1.896,0.597,2.478,1.034c1.005,0.764,1.508,1.871,1.508,3.324c0,1.808-0.642,3.101-1.924,3.879
		c-1.283,0.778-2.773,1.167-4.473,1.167c-1.98,0-3.53-0.519-4.65-1.556c-1.121-1.03-1.67-2.427-1.647-4.191H126.685z"/>
	<path fill="#8A8A8A" d="M140.636,548.145h11.851v2.001h-9.693v4.958h8.959v1.89h-8.959v5.536h9.859v1.945h-12.017V548.145z"/>
	<path fill="#8A8A8A" d="M161.879,548.145h3.169l4.696,13.807l4.662-13.807h3.146v16.33h-2.112v-9.638
		c0-0.334,0.008-0.886,0.022-1.656s0.022-1.597,0.022-2.479l-4.662,13.773h-2.192l-4.706-13.773v0.501
		c0,0.399,0.011,1.01,0.033,1.828c0.021,0.819,0.033,1.421,0.033,1.807v9.638h-2.112V548.145z"/>
	<path fill="#8A8A8A" d="M185.664,548.145h2.497l5.927,16.33h-2.423l-1.705-4.892h-6.406l-1.771,4.892h-2.268L185.664,548.145z
		 M189.332,557.782l-2.514-7.214l-2.612,7.214H189.332z"/>
	<path fill="#8A8A8A" d="M196.084,548.145h2.605l8.144,13.194v-13.194h2.112v16.33h-2.485l-8.265-13.178v13.178h-2.111V548.145z"/>
	<path fill="#8A8A8A" d="M217.29,548.145h2.497l5.927,16.33h-2.424l-1.704-4.892h-6.407l-1.771,4.892h-2.268L217.29,548.145z
		 M220.958,557.782l-2.515-7.214l-2.612,7.214H220.958z"/>
	<path fill="#8A8A8A" d="M238.58,548.611c1.599,0.853,2.578,2.346,2.936,4.48h-2.189c-0.262-1.193-0.802-2.062-1.622-2.607
		c-0.82-0.544-1.854-0.816-3.103-0.816c-1.48,0-2.728,0.566-3.739,1.7c-1.013,1.134-1.519,2.824-1.519,5.069
		c0,1.941,0.417,3.522,1.253,4.741c0.835,1.219,2.196,1.828,4.085,1.828c1.445,0,2.642-0.428,3.59-1.283
		c0.947-0.856,1.433-2.24,1.455-4.152h-5.114v-1.834h7.17v8.737h-1.423l-0.533-2.101c-0.736,0.822-1.389,1.393-1.957,1.712
		c-0.955,0.548-2.169,0.822-3.642,0.822c-1.903,0-3.54-0.626-4.91-1.879c-1.494-1.571-2.241-3.728-2.241-6.47
		c0-2.734,0.73-4.909,2.19-6.525c1.388-1.541,3.185-2.312,5.391-2.312C236.169,547.723,237.477,548.019,238.58,548.611z"/>
	<path fill="#8A8A8A" d="M245.629,548.145h11.85v2.001h-9.693v4.958h8.96v1.89h-8.96v5.536h9.86v1.945h-12.017V548.145z"/>
	<path fill="#8A8A8A" d="M260.547,548.145h3.169l4.695,13.807l4.662-13.807h3.147v16.33h-2.112v-9.638
		c0-0.334,0.007-0.886,0.022-1.656c0.015-0.771,0.021-1.597,0.021-2.479l-4.662,13.773h-2.191l-4.707-13.773v0.501
		c0,0.399,0.011,1.01,0.033,1.828c0.022,0.819,0.033,1.421,0.033,1.807v9.638h-2.111V548.145z"/>
	<path fill="#8A8A8A" d="M279.777,548.145h11.851v2.001h-9.693v4.958h8.959v1.89h-8.959v5.536h9.859v1.945h-12.017V548.145z"/>
	<path fill="#8A8A8A" d="M294.752,548.145h2.605l8.144,13.194v-13.194h2.112v16.33h-2.485l-8.265-13.178v13.178h-2.111V548.145z"/>
	<path fill="#8A8A8A" d="M323.064,548.145v1.945h-5.503v14.385h-2.234V550.09h-5.502v-1.945H323.064z"/>
</g>
<g>
	<path fill="#8A8A8A" d="M345.272,697.642h7.061c1.925,0,3.293,0.571,4.106,1.712c0.478,0.675,0.717,1.453,0.717,2.335
		c0,1.03-0.293,1.875-0.879,2.534c-0.304,0.349-0.741,0.667-1.312,0.956c0.838,0.318,1.464,0.678,1.879,1.078
		c0.733,0.712,1.101,1.693,1.101,2.946c0,1.052-0.332,2.005-0.996,2.856c-0.991,1.274-2.568,1.912-4.73,1.912h-6.946V697.642z
		 M351.507,704.545c0.943,0,1.677-0.129,2.201-0.389c0.823-0.407,1.235-1.142,1.235-2.201c0-1.067-0.438-1.786-1.313-2.156
		c-0.495-0.208-1.229-0.312-2.202-0.312h-3.987v5.058H351.507z M352.254,712.082c1.369,0,2.346-0.393,2.929-1.179
		c0.367-0.496,0.551-1.097,0.551-1.801c0-1.186-0.535-1.993-1.605-2.423c-0.568-0.229-1.32-0.345-2.255-0.345h-4.433v5.747H352.254z
		"/>
	<path fill="#8A8A8A" d="M365.278,697.642h2.497l5.927,16.33h-2.424l-1.704-4.892h-6.407l-1.771,4.892h-2.268L365.278,697.642z
		 M368.946,707.279l-2.515-7.214l-2.612,7.214H368.946z"/>
	<path fill="#8A8A8A" d="M375.965,697.642h7.423c1.222,0,2.229,0.182,3.023,0.545c1.506,0.696,2.259,1.982,2.259,3.857
		c0,0.979-0.201,1.778-0.605,2.401c-0.404,0.622-0.969,1.122-1.695,1.5c0.638,0.26,1.117,0.601,1.439,1.023
		c0.322,0.422,0.502,1.107,0.539,2.057l0.078,2.189c0.022,0.622,0.074,1.086,0.155,1.39c0.134,0.519,0.371,0.853,0.712,1v0.367
		h-2.713c-0.073-0.141-0.133-0.322-0.178-0.545c-0.044-0.222-0.081-0.651-0.11-1.289l-0.134-2.724
		c-0.051-1.067-0.436-1.782-1.155-2.146c-0.411-0.2-1.056-0.3-1.934-0.3h-4.893v7.003h-2.212V697.642z M383.149,705.123
		c1.009,0,1.807-0.207,2.395-0.622c0.587-0.415,0.881-1.164,0.881-2.246c0-1.163-0.411-1.956-1.232-2.379
		c-0.439-0.222-1.026-0.333-1.762-0.333h-5.254v5.58H383.149z"/>
	<path fill="#8A8A8A" d="M392.405,697.642h7.423c1.223,0,2.23,0.182,3.023,0.545c1.507,0.696,2.26,1.982,2.26,3.857
		c0,0.979-0.202,1.778-0.605,2.401c-0.404,0.622-0.97,1.122-1.695,1.5c0.637,0.26,1.117,0.601,1.439,1.023
		c0.322,0.422,0.502,1.107,0.539,2.057l0.078,2.189c0.021,0.622,0.073,1.086,0.155,1.39c0.134,0.519,0.37,0.853,0.711,1v0.367
		h-2.712c-0.074-0.141-0.134-0.322-0.178-0.545c-0.045-0.222-0.082-0.651-0.111-1.289l-0.134-2.724
		c-0.05-1.067-0.436-1.782-1.155-2.146c-0.41-0.2-1.055-0.3-1.934-0.3h-4.893v7.003h-2.212V697.642z M399.591,705.123
		c1.009,0,1.807-0.207,2.394-0.622c0.588-0.415,0.882-1.164,0.882-2.246c0-1.163-0.411-1.956-1.232-2.379
		c-0.44-0.222-1.027-0.333-1.763-0.333h-5.254v5.58H399.591z"/>
	<path fill="#8A8A8A" d="M409.08,697.642h2.234v16.33h-2.234V697.642z"/>
	<path fill="#8A8A8A" d="M415.116,697.642h11.85v2.001h-9.693v4.958h8.96v1.89h-8.96v5.536h9.86v1.945h-12.017V697.642z"/>
	<path fill="#8A8A8A" d="M430.356,697.642h7.423c1.222,0,2.229,0.182,3.023,0.545c1.506,0.696,2.259,1.982,2.259,3.857
		c0,0.979-0.201,1.778-0.605,2.401c-0.404,0.622-0.969,1.122-1.695,1.5c0.638,0.26,1.117,0.601,1.439,1.023
		c0.322,0.422,0.502,1.107,0.539,2.057l0.078,2.189c0.022,0.622,0.074,1.086,0.155,1.39c0.134,0.519,0.371,0.853,0.712,1v0.367
		h-2.713c-0.073-0.141-0.133-0.322-0.178-0.545c-0.044-0.222-0.081-0.651-0.11-1.289l-0.134-2.724
		c-0.051-1.067-0.436-1.782-1.155-2.146c-0.411-0.2-1.056-0.3-1.934-0.3h-4.893v7.003h-2.212V697.642z M437.541,705.123
		c1.009,0,1.807-0.207,2.395-0.622c0.587-0.415,0.881-1.164,0.881-2.246c0-1.163-0.411-1.956-1.232-2.379
		c-0.439-0.222-1.026-0.333-1.762-0.333h-5.254v5.58H437.541z"/>
	<path fill="#8A8A8A" d="M453.122,697.642h7.423c1.223,0,2.23,0.182,3.023,0.545c1.506,0.696,2.26,1.982,2.26,3.857
		c0,0.979-0.202,1.778-0.606,2.401c-0.403,0.622-0.969,1.122-1.695,1.5c0.638,0.26,1.117,0.601,1.44,1.023
		c0.322,0.422,0.502,1.107,0.539,2.057l0.077,2.189c0.022,0.622,0.074,1.086,0.156,1.39c0.133,0.519,0.37,0.853,0.711,1v0.367
		h-2.712c-0.074-0.141-0.134-0.322-0.178-0.545c-0.045-0.222-0.082-0.651-0.111-1.289l-0.134-2.724
		c-0.05-1.067-0.436-1.782-1.155-2.146c-0.411-0.2-1.055-0.3-1.934-0.3h-4.893v7.003h-2.212V697.642z M460.307,705.123
		c1.009,0,1.808-0.207,2.395-0.622c0.588-0.415,0.881-1.164,0.881-2.246c0-1.163-0.41-1.956-1.232-2.379
		c-0.439-0.222-1.026-0.333-1.762-0.333h-5.254v5.58H460.307z"/>
	<path fill="#8A8A8A" d="M469.507,697.642h11.85v2.001h-9.693v4.958h8.96v1.89h-8.96v5.536h9.86v1.945h-12.017V697.642z"/>
	<path fill="#8A8A8A" d="M484.426,697.642h3.169l4.695,13.807l4.662-13.807h3.147v16.33h-2.112v-9.638
		c0-0.334,0.008-0.886,0.022-1.656s0.022-1.597,0.022-2.479l-4.662,13.773h-2.192l-4.707-13.773v0.501
		c0,0.399,0.012,1.01,0.033,1.828c0.022,0.819,0.034,1.421,0.034,1.807v9.638h-2.112V697.642z"/>
	<path fill="#8A8A8A" d="M516.896,699.977c1.082,1.445,1.623,3.294,1.623,5.547c0,2.438-0.619,4.465-1.856,6.08
		c-1.452,1.897-3.523,2.846-6.214,2.846c-2.513,0-4.487-0.829-5.925-2.489c-1.282-1.601-1.923-3.624-1.923-6.069
		c0-2.209,0.548-4.099,1.645-5.67c1.408-2.016,3.491-3.023,6.248-3.023C513.376,697.197,515.51,698.124,516.896,699.977z
		 M514.944,710.385c0.871-1.397,1.307-3.006,1.307-4.822c0-1.922-0.502-3.468-1.506-4.64c-1.005-1.172-2.378-1.758-4.119-1.758
		c-1.689,0-3.068,0.58-4.135,1.741c-1.067,1.16-1.601,2.872-1.601,5.134c0,1.811,0.457,3.336,1.372,4.578
		c0.915,1.243,2.399,1.864,4.452,1.864C512.664,712.482,514.074,711.783,514.944,710.385z"/>
	<path fill="#8A8A8A" d="M522.448,697.642l4.691,13.906l4.635-13.906h2.479l-5.959,16.33h-2.345l-5.947-16.33H522.448z"/>
	<path fill="#8A8A8A" d="M539.426,697.642h2.497l5.927,16.33h-2.424l-1.704-4.892h-6.407l-1.771,4.892h-2.268L539.426,697.642z
		 M543.094,707.279l-2.515-7.214l-2.612,7.214H543.094z"/>
	<path fill="#8A8A8A" d="M549.845,697.642h2.212v14.385h8.192v1.945h-10.404V697.642z"/>
</g>
<g>
	<path fill="#8A8A8A" d="M150.248,299.896h7.061c1.924,0,3.293,0.571,4.106,1.712c0.477,0.674,0.716,1.453,0.716,2.334
		c0,1.03-0.293,1.875-0.878,2.534c-0.304,0.349-0.741,0.667-1.312,0.956c0.837,0.319,1.463,0.678,1.878,1.078
		c0.734,0.711,1.101,1.694,1.101,2.946c0,1.053-0.332,2.005-0.995,2.857c-0.992,1.275-2.569,1.912-4.731,1.912h-6.945V299.896z
		 M156.481,306.799c0.943,0,1.678-0.129,2.202-0.389c0.823-0.408,1.235-1.142,1.235-2.201c0-1.067-0.438-1.786-1.314-2.157
		c-0.494-0.207-1.229-0.311-2.201-0.311h-3.988v5.058H156.481z M157.229,314.336c1.369,0,2.345-0.393,2.929-1.178
		c0.366-0.497,0.55-1.097,0.55-1.801c0-1.186-0.535-1.993-1.604-2.423c-0.569-0.229-1.32-0.344-2.256-0.344h-4.433v5.747H157.229z"
		/>
	<path fill="#8A8A8A" d="M165.699,299.896h11.85v2.001h-9.693v4.958h8.96v1.89h-8.96v5.536h9.86v1.945h-12.017V299.896z"/>
	<path fill="#8A8A8A" d="M180.729,299.896h2.234v6.748h8.393v-6.748h2.234v16.33h-2.234v-7.637h-8.393v7.637h-2.234V299.896z"/>
	<path fill="#8A8A8A" d="M201.879,299.896h2.497l5.927,16.33h-2.423l-1.705-4.891h-6.406l-1.771,4.891h-2.268L201.879,299.896z
		 M205.547,309.534l-2.514-7.214l-2.612,7.214H205.547z"/>
	<path fill="#8A8A8A" d="M211.915,299.896l4.691,13.906l4.635-13.906h2.479l-5.958,16.33h-2.346l-5.947-16.33H211.915z"/>
	<path fill="#8A8A8A" d="M226.305,299.896h2.234v16.33h-2.234V299.896z"/>
	<path fill="#8A8A8A" d="M245.58,302.23c1.082,1.445,1.623,3.294,1.623,5.547c0,2.438-0.618,4.465-1.856,6.081
		c-1.452,1.897-3.523,2.846-6.214,2.846c-2.512,0-4.487-0.83-5.925-2.49c-1.282-1.601-1.923-3.624-1.923-6.069
		c0-2.208,0.548-4.098,1.646-5.669c1.407-2.016,3.49-3.023,6.247-3.023C242.061,299.451,244.194,300.377,245.58,302.23z
		 M243.63,312.639c0.87-1.398,1.306-3.005,1.306-4.823c0-1.921-0.502-3.467-1.506-4.639c-1.005-1.172-2.377-1.758-4.119-1.758
		c-1.689,0-3.067,0.58-4.135,1.741c-1.067,1.161-1.601,2.872-1.601,5.134c0,1.81,0.457,3.336,1.373,4.578
		c0.915,1.242,2.398,1.863,4.452,1.863C241.349,314.736,242.759,314.037,243.63,312.639z"/>
	<path fill="#8A8A8A" d="M250.104,299.896h7.423c1.223,0,2.23,0.182,3.023,0.544c1.507,0.697,2.26,1.982,2.26,3.857
		c0,0.978-0.202,1.779-0.605,2.401c-0.404,0.623-0.97,1.123-1.695,1.501c0.637,0.259,1.117,0.6,1.439,1.022s0.502,1.108,0.539,2.057
		l0.078,2.19c0.021,0.623,0.073,1.086,0.155,1.39c0.134,0.519,0.37,0.852,0.711,1v0.367h-2.712
		c-0.074-0.141-0.134-0.322-0.178-0.545c-0.045-0.222-0.082-0.652-0.111-1.289l-0.134-2.724c-0.05-1.067-0.436-1.782-1.155-2.146
		c-0.41-0.2-1.055-0.3-1.934-0.3h-4.893v7.003h-2.212V299.896z M257.29,307.377c1.009,0,1.807-0.208,2.394-0.623
		c0.588-0.415,0.882-1.163,0.882-2.245c0-1.164-0.411-1.957-1.232-2.379c-0.44-0.223-1.027-0.333-1.763-0.333h-5.254v5.58H257.29z"
		/>
	<path fill="#8A8A8A" d="M271.044,299.896h2.497l5.927,16.33h-2.423l-1.705-4.891h-6.406l-1.771,4.891h-2.268L271.044,299.896z
		 M274.712,309.534l-2.514-7.214l-2.612,7.214H274.712z"/>
	<path fill="#8A8A8A" d="M281.464,299.896h2.212v14.384h8.193v1.945h-10.405V299.896z"/>
	<path fill="#8A8A8A" d="M146.157,327.215h2.234v6.748h8.393v-6.748h2.234v16.33h-2.234v-7.637h-8.393v7.637h-2.234V327.215z"/>
	<path fill="#8A8A8A" d="M162.754,327.215h11.85v2.001h-9.693v4.958h8.96v1.89h-8.96v5.536h9.86v1.945h-12.017V327.215z"/>
	<path fill="#8A8A8A" d="M182.492,327.215h2.497l5.927,16.33h-2.423l-1.705-4.891h-6.406l-1.771,4.891h-2.268L182.492,327.215z
		 M186.16,336.853l-2.514-7.214l-2.612,7.214H186.16z"/>
	<path fill="#8A8A8A" d="M192.912,327.215h2.212V341.6h8.193v1.945h-10.405V327.215z"/>
	<path fill="#8A8A8A" d="M215.768,327.215v1.945h-5.503v14.384h-2.234v-14.384h-5.503v-1.945H215.768z"/>
	<path fill="#8A8A8A" d="M217.856,327.215h2.234v6.748h8.394v-6.748h2.234v16.33h-2.234v-7.637h-8.394v7.637h-2.234V327.215z"/>
	<path fill="#8A8A8A" d="M252.117,328.405c1.128,1.089,1.754,2.327,1.879,3.712h-2.157c-0.24-1.052-0.719-1.886-1.436-2.501
		c-0.717-0.615-1.723-0.922-3.019-0.922c-1.579,0-2.854,0.565-3.826,1.696c-0.972,1.131-1.457,2.865-1.457,5.201
		c0,1.914,0.438,3.466,1.315,4.656c0.878,1.19,2.187,1.786,3.926,1.786c1.602,0,2.821-0.626,3.658-1.879
		c0.444-0.659,0.775-1.526,0.994-2.601h2.156c-0.19,1.719-0.82,3.161-1.89,4.324c-1.282,1.401-3.011,2.101-5.187,2.101
		c-1.876,0-3.45-0.575-4.726-1.724c-1.677-1.52-2.516-3.867-2.516-7.042c0-2.41,0.63-4.386,1.89-5.929
		c1.362-1.676,3.241-2.514,5.636-2.514C249.403,326.771,250.989,327.315,252.117,328.405z"/>
	<path fill="#8A8A8A" d="M261.773,327.215h2.497l5.927,16.33h-2.423l-1.705-4.891h-6.406l-1.771,4.891h-2.268L261.773,327.215z
		 M265.441,336.853l-2.514-7.214l-2.612,7.214H265.441z"/>
	<path fill="#8A8A8A" d="M272.46,327.215h7.423c1.222,0,2.229,0.182,3.023,0.544c1.506,0.697,2.259,1.982,2.259,3.857
		c0,0.978-0.201,1.779-0.605,2.401c-0.404,0.623-0.969,1.123-1.695,1.501c0.638,0.259,1.117,0.6,1.439,1.022
		s0.502,1.108,0.539,2.057l0.078,2.19c0.022,0.623,0.074,1.086,0.155,1.39c0.134,0.519,0.371,0.852,0.712,1v0.367h-2.713
		c-0.073-0.141-0.133-0.322-0.178-0.545c-0.044-0.222-0.081-0.652-0.11-1.289l-0.134-2.724c-0.051-1.067-0.436-1.782-1.155-2.146
		c-0.411-0.2-1.056-0.3-1.934-0.3h-4.893v7.003h-2.212V327.215z M279.645,334.696c1.009,0,1.807-0.208,2.395-0.623
		c0.587-0.415,0.881-1.163,0.881-2.245c0-1.164-0.411-1.957-1.232-2.379c-0.439-0.223-1.026-0.333-1.762-0.333h-5.254v5.58H279.645z
		"/>
	<path fill="#8A8A8A" d="M288.845,327.215h11.851v2.001h-9.693v4.958h8.959v1.89h-8.959v5.536h9.859v1.945h-12.017V327.215z"/>
</g>
<g>
	<text transform="matrix(1 0 0 1 394.0215 366.3086)"><tspan x="0" y="0" font-family="'DroidSerif'" font-size="29.5959">Program </tspan><tspan x="-26.424" y="38.702" font-family="'DroidSerif'" font-size="29.5959">Components</tspan></text>
</g>
<g>
	<path fill="#8A8A8A" d="M367.034,151.201c0,1.378-0.204,2.45-0.612,3.213c-0.757,1.393-2.196,2.09-4.318,2.09
		c-1.225,0-2.271-0.332-3.139-0.995s-1.302-1.843-1.302-3.541v-1.167h2.078v1.167c0,0.89,0.199,1.558,0.597,2.007
		c0.396,0.448,1.016,0.672,1.854,0.672c1.181,0,1.953-0.404,2.317-1.212c0.223-0.496,0.334-1.434,0.334-2.812V139.74h2.19V151.201z"
		/>
	<path fill="#8A8A8A" d="M383.841,142.075c1.082,1.445,1.623,3.294,1.623,5.547c0,2.438-0.618,4.465-1.856,6.081
		c-1.452,1.897-3.523,2.846-6.214,2.846c-2.512,0-4.487-0.83-5.925-2.49c-1.282-1.601-1.923-3.624-1.923-6.069
		c0-2.208,0.548-4.098,1.646-5.669c1.407-2.016,3.49-3.023,6.247-3.023C380.321,139.295,382.455,140.222,383.841,142.075z
		 M381.891,152.483c0.87-1.398,1.306-3.005,1.306-4.823c0-1.921-0.502-3.467-1.506-4.639c-1.005-1.172-2.377-1.758-4.119-1.758
		c-1.689,0-3.067,0.58-4.135,1.741c-1.067,1.161-1.601,2.872-1.601,5.134c0,1.81,0.457,3.336,1.373,4.578
		c0.915,1.242,2.398,1.863,4.452,1.863C379.609,154.58,381.02,153.881,381.891,152.483z"/>
	<path fill="#8A8A8A" d="M388.044,139.74h7.061c1.924,0,3.293,0.571,4.106,1.712c0.477,0.674,0.716,1.453,0.716,2.334
		c0,1.03-0.293,1.875-0.878,2.534c-0.304,0.349-0.741,0.667-1.312,0.956c0.837,0.319,1.463,0.678,1.878,1.078
		c0.734,0.711,1.101,1.694,1.101,2.946c0,1.053-0.332,2.005-0.995,2.857c-0.992,1.275-2.569,1.912-4.731,1.912h-6.945V139.74z
		 M394.277,146.643c0.943,0,1.678-0.129,2.202-0.389c0.823-0.408,1.235-1.142,1.235-2.201c0-1.067-0.438-1.786-1.314-2.157
		c-0.494-0.207-1.229-0.311-2.201-0.311h-3.988v5.058H394.277z M395.025,154.18c1.369,0,2.345-0.393,2.929-1.178
		c0.366-0.497,0.55-1.097,0.55-1.801c0-1.186-0.535-1.993-1.604-2.423c-0.569-0.229-1.32-0.344-2.256-0.344h-4.433v5.747H395.025z"
		/>
	<path fill="#8A8A8A" d="M409.876,139.74h7.423c1.222,0,2.229,0.182,3.023,0.544c1.506,0.697,2.259,1.982,2.259,3.857
		c0,0.978-0.201,1.779-0.605,2.401c-0.404,0.623-0.969,1.123-1.695,1.501c0.638,0.259,1.117,0.6,1.439,1.022
		s0.502,1.108,0.539,2.057l0.078,2.19c0.022,0.623,0.074,1.086,0.155,1.39c0.134,0.519,0.371,0.852,0.712,1v0.367h-2.713
		c-0.073-0.141-0.133-0.322-0.178-0.545c-0.044-0.222-0.081-0.652-0.11-1.289l-0.134-2.724c-0.051-1.067-0.436-1.782-1.155-2.146
		c-0.411-0.2-1.056-0.3-1.934-0.3h-4.893v7.003h-2.212V139.74z M417.061,147.221c1.009,0,1.807-0.208,2.395-0.623
		c0.587-0.415,0.881-1.163,0.881-2.245c0-1.164-0.411-1.957-1.232-2.379c-0.439-0.223-1.026-0.333-1.762-0.333h-5.254v5.58H417.061z
		"/>
	<path fill="#8A8A8A" d="M426.261,139.74h11.851v2.001h-9.693v4.958h8.959v1.89h-8.959v5.536h9.859v1.945h-12.017V139.74z"/>
	<path fill="#8A8A8A" d="M446,139.74h2.497l5.927,16.33H452l-1.704-4.891h-6.407l-1.771,4.891h-2.268L446,139.74z M449.668,149.378
		l-2.515-7.214l-2.612,7.214H449.668z"/>
	<path fill="#8A8A8A" d="M456.519,139.74h6.527c2.216,0,3.935,0.796,5.155,2.39c1.09,1.438,1.635,3.279,1.635,5.525
		c0,1.734-0.322,3.302-0.965,4.702c-1.134,2.475-3.083,3.713-5.848,3.713h-6.505V139.74z M462.612,154.18
		c0.731,0,1.333-0.078,1.804-0.233c0.841-0.289,1.529-0.845,2.065-1.667c0.428-0.66,0.735-1.504,0.924-2.535
		c0.108-0.615,0.163-1.186,0.163-1.712c0-2.023-0.394-3.594-1.18-4.713c-0.786-1.119-2.053-1.678-3.799-1.678h-3.837v12.539H462.612
		z"/>
	<path fill="#8A8A8A" d="M473.36,139.74h2.234v16.33h-2.234V139.74z"/>
	<path fill="#8A8A8A" d="M479.186,139.74h2.605l8.144,13.194V139.74h2.112v16.33h-2.485l-8.264-13.178v13.178h-2.112V139.74z"/>
	<path fill="#8A8A8A" d="M495.837,139.74h11.85v2.001h-9.693v4.958h8.96v1.89h-8.96v5.536h9.86v1.945h-12.017V139.74z"/>
	<path fill="#8A8A8A" d="M512.257,150.801c0.05,0.926,0.26,1.679,0.631,2.256c0.707,1.083,1.953,1.623,3.737,1.623
		c0.8,0,1.528-0.118,2.185-0.355c1.271-0.459,1.906-1.282,1.906-2.468c0-0.89-0.27-1.523-0.808-1.901
		c-0.546-0.371-1.4-0.693-2.563-0.967l-2.143-0.5c-1.4-0.326-2.391-0.686-2.972-1.079c-1.006-0.682-1.508-1.701-1.508-3.057
		c0-1.468,0.494-2.672,1.481-3.613c0.988-0.941,2.388-1.412,4.197-1.412c1.666,0,3.081,0.414,4.246,1.24s1.747,2.147,1.747,3.963
		h-2.079c-0.106-0.875-0.334-1.545-0.682-2.012c-0.646-0.852-1.744-1.278-3.293-1.278c-1.251,0-2.149,0.274-2.697,0.823
		c-0.547,0.548-0.82,1.186-0.82,1.912c0,0.8,0.323,1.386,0.97,1.756c0.424,0.237,1.382,0.533,2.876,0.889l2.219,0.522
		c1.069,0.252,1.896,0.597,2.477,1.034c1.006,0.763,1.508,1.872,1.508,3.324c0,1.809-0.641,3.102-1.924,3.88
		c-1.283,0.778-2.773,1.167-4.472,1.167c-1.98,0-3.531-0.519-4.651-1.556c-1.12-1.03-1.67-2.427-1.647-4.191H512.257z"/>
	<path fill="#8A8A8A" d="M527.441,150.801c0.05,0.926,0.26,1.679,0.631,2.256c0.707,1.083,1.953,1.623,3.737,1.623
		c0.8,0,1.528-0.118,2.185-0.355c1.271-0.459,1.906-1.282,1.906-2.468c0-0.89-0.27-1.523-0.808-1.901
		c-0.546-0.371-1.4-0.693-2.563-0.967l-2.143-0.5c-1.4-0.326-2.391-0.686-2.972-1.079c-1.006-0.682-1.508-1.701-1.508-3.057
		c0-1.468,0.494-2.672,1.481-3.613c0.988-0.941,2.388-1.412,4.197-1.412c1.666,0,3.081,0.414,4.246,1.24s1.747,2.147,1.747,3.963
		H535.5c-0.106-0.875-0.334-1.545-0.682-2.012c-0.646-0.852-1.744-1.278-3.293-1.278c-1.251,0-2.149,0.274-2.697,0.823
		c-0.547,0.548-0.82,1.186-0.82,1.912c0,0.8,0.323,1.386,0.97,1.756c0.424,0.237,1.382,0.533,2.876,0.889l2.219,0.522
		c1.069,0.252,1.896,0.597,2.477,1.034c1.006,0.763,1.508,1.872,1.508,3.324c0,1.809-0.641,3.102-1.924,3.88
		c-1.283,0.778-2.773,1.167-4.472,1.167c-1.98,0-3.531-0.519-4.651-1.556c-1.12-1.03-1.67-2.427-1.647-4.191H527.441z"/>
	<path fill="#8A8A8A" d="M410.743,167.06v1.945h-5.503v14.384h-2.234v-14.384h-5.503v-1.945H410.743z"/>
	<path fill="#8A8A8A" d="M413.044,167.06h7.423c1.222,0,2.229,0.182,3.023,0.544c1.506,0.697,2.259,1.982,2.259,3.857
		c0,0.978-0.201,1.779-0.605,2.401c-0.404,0.623-0.969,1.123-1.695,1.501c0.638,0.259,1.117,0.6,1.439,1.022
		s0.502,1.108,0.539,2.057l0.078,2.19c0.022,0.623,0.074,1.086,0.155,1.39c0.134,0.519,0.371,0.852,0.712,1v0.367h-2.713
		c-0.073-0.141-0.133-0.322-0.178-0.545c-0.044-0.222-0.081-0.652-0.11-1.289l-0.134-2.724c-0.051-1.067-0.436-1.782-1.155-2.146
		c-0.411-0.2-1.056-0.3-1.934-0.3h-4.893v7.003h-2.212V167.06z M420.229,174.541c1.009,0,1.807-0.208,2.395-0.623
		c0.587-0.415,0.881-1.163,0.881-2.245c0-1.164-0.411-1.957-1.232-2.379c-0.439-0.223-1.026-0.333-1.762-0.333h-5.254v5.58H420.229z
		"/>
	<path fill="#8A8A8A" d="M433.983,167.06h2.497l5.927,16.33h-2.424l-1.704-4.891h-6.407l-1.771,4.891h-2.268L433.983,167.06z
		 M437.651,176.697l-2.515-7.214l-2.612,7.214H437.651z"/>
	<path fill="#8A8A8A" d="M444.903,167.06h2.233v16.33h-2.233V167.06z"/>
	<path fill="#8A8A8A" d="M450.728,167.06h2.605l8.144,13.194V167.06h2.112v16.33h-2.485l-8.264-13.178v13.178h-2.112V167.06z"/>
	<path fill="#8A8A8A" d="M467.669,167.06h2.234v16.33h-2.234V167.06z"/>
	<path fill="#8A8A8A" d="M473.494,167.06h2.605l8.144,13.194V167.06h2.112v16.33h-2.485l-8.264-13.178v13.178h-2.112V167.06z"/>
	<path fill="#8A8A8A" d="M500.805,167.526c1.6,0.852,2.578,2.345,2.936,4.48h-2.189c-0.261-1.193-0.802-2.062-1.622-2.607
		c-0.82-0.545-1.854-0.817-3.103-0.817c-1.48,0-2.727,0.567-3.739,1.701s-1.519,2.823-1.519,5.069c0,1.942,0.418,3.522,1.253,4.741
		s2.197,1.829,4.085,1.829c1.445,0,2.642-0.428,3.59-1.284c0.947-0.856,1.433-2.24,1.455-4.152h-5.113v-1.834h7.17v8.737h-1.423
		l-0.534-2.101c-0.736,0.823-1.389,1.394-1.957,1.712c-0.955,0.548-2.169,0.823-3.642,0.823c-1.902,0-3.539-0.626-4.91-1.879
		c-1.494-1.571-2.241-3.728-2.241-6.469c0-2.735,0.73-4.91,2.191-6.525c1.388-1.542,3.185-2.312,5.391-2.312
		C498.395,166.637,499.701,166.934,500.805,167.526z"/>
</g>
<g>
	<path d="M426.425,99.347c3.695,0,6.688-2.991,6.688-6.689c0-3.674-2.993-6.667-6.688-6.667c-3.677,0-6.667,2.994-6.667,6.667
		C419.758,96.356,422.748,99.347,426.425,99.347z"/>
	<path d="M492.912,107.301h-49.369v-4.14l15.473-7.413c1.459-0.701,2.077-2.452,1.369-3.907l-0.182-0.377
		c-0.703-1.456-2.449-2.067-3.909-1.367l-12.751,6.108v-15.8h49.369V107.301z M440.228,77.093V97.79l-6.385,3.061l-2.45-0.003
		h-9.742l-4.205,0.009c-1.298-0.112-2.561,0.858-3.013,2.143l-7.289,20.697h6.652l3.646-10.361v10.361h18.051l-0.002-16.697
		c0.064-0.027,0.135-0.042,0.198-0.075l4.54-2.177v5.872h55.996V77.093H440.228z"/>
</g>
<path d="M679.006,272.984c-5.98,0-10.845-4.867-10.845-10.845c0-5.98,4.864-10.847,10.845-10.847
	c5.979,0,10.843,4.866,10.843,10.847C689.849,268.118,684.984,272.984,679.006,272.984z M703.903,282.922l-12.527-12.523
	c1.63-2.423,2.504-5.276,2.504-8.26c0-3.975-1.548-7.708-4.355-10.516c-2.812-2.812-6.546-4.359-10.519-4.359
	c-3.975,0-7.705,1.547-10.517,4.359c-2.812,2.804-4.356,6.541-4.356,10.514c0,3.971,1.544,7.708,4.356,10.514
	c2.809,2.81,6.539,4.359,10.517,4.359c3.017,0,5.905-0.896,8.342-2.557l12.517,12.512c0.423,0.425,1.197,0.331,1.731-0.207
	l2.106-2.101C704.236,284.125,704.326,283.345,703.903,282.922z"/>
<g>
	<path d="M700.418,484.058c-3.517-7.351-14.302-7.669-18.692-0.881c-4.793-6.71-15.179-6.47-18.695,0.881
		c-2.713,5.751,2.717,20.291,6.551,24.682c3.836,4.313,9.585,1.039,12.145,1.039c2.558,0,8.308,3.274,12.143-1.039
		C697.701,504.427,703.216,489.809,700.418,484.058z"/>
	<path d="M681.886,477.43c1.594-8.471,7.825-10.785,13.658-10.545C693.546,473.99,688.675,476.389,681.886,477.43z"/>
	<path d="M680.767,483.021c0.16-3.039,0.241-6.071-0.163-7.748c-0.402-1.996-1.753-3.515-2.234-4.073
		c-0.879-0.883-0.159-1.601,0.481-1.759c0.956-0.24,1.434,0.48,1.916,1.038c0.478,0.641,1.197,2.317,1.437,4.153
		c0.32,2.234,0.162,6.15,0,8.148C681.886,486.536,680.767,483.021,680.767,483.021z"/>
	<path d="M705.131,534.228h-40.103c-5.272,0-9.586-4.313-9.586-9.587c0-5.274,4.313-9.587,9.586-9.587h40.099v3.755h-40.099
		c-3.192,0-5.831,2.637-5.831,5.832c0,3.191,2.639,5.829,5.831,5.829h40.099v3.758H705.131z"/>
	<path d="M704.251,520.403h-40.183c-1.119,0.239-1.994,0.882-2.635,1.839h42.817V520.403z"/>
	<path d="M704.251,523.68h-43.378c-0.075,0.321-0.075,0.561-0.075,0.881s0,0.64,0.075,0.881h43.378V523.68z"/>
	<path d="M704.251,526.956h-42.817c0.559,0.876,1.516,1.598,2.635,1.835h40.183V526.956z"/>
</g>
<g>
	<path d="M478.786,664.841h-1.164v-19.065c0-0.67-0.201-1.315-0.874-1.315h-0.291l-14.817,1.369c0.45,0.745,0.779,1.481,0.864,2.108
		c0.347,2.541-0.233,4.205-2.285,5.767c-1.477,1.12-4.547,0.764-5.764-0.619c-1.621-1.853-2.92-4.075-4.257-6.161l-24.399,2.292
		h-0.29c-0.673,0-1.554,0.645-1.554,1.316v19.064h-0.487c-0.672,0-1.551,0.645-1.551,1.313v0.295c0,0.668,0.879,1.108,1.551,1.108
		h4.372c0.666,0,0.871-0.44,0.871-1.109v-0.294c0-0.669-0.205-1.313-0.874-1.313h-1.166v-2.615l48.235-4.755v2.614h-0.486
		c-0.673,0-1.554,0.644-1.554,1.314v0.295c0,0.667,0.881,1.107,1.554,1.107h4.366c0.672,0,0.873-0.44,0.873-1.111v-0.291
		C479.659,665.484,479.458,664.841,478.786,664.841z"/>
	<path d="M443.414,644.025c-1.859-0.479-3.881-1.804-4.859-3.502c-1.04,1.391-3.332,4.374-4.524,5.964
		c2.828-0.271,5.65-0.542,8.473-0.812c0.523-0.528,1.023-1.031,1.485-1.504C443.793,644.125,443.603,644.073,443.414,644.025z"/>
	<path d="M468.293,623.193c0.078-1.055-1.029-2.348-2.314-2.222c-0.495,0.046-1.105,0.217-1.486,0.674l-2.135,2.494l-2.106,2.495
		c0,0-2.336-2.787-3.08-3.526c-0.747-0.736-1.497-1.352-2.46-2.06c-0.967-0.708-3.553-1.627-4.705-1.596l-0.749,0.028l-7.357,0.31
		c-1.29,0.117-2.048,0.932-2.353,1.362l-3.721,5.247c-0.354,0.525-0.629,1.038-0.582,1.614c0.092,1.077,1.063,1.98,2.186,1.903
		c0.604-0.043,1.343-0.364,1.872-1.007l3.21-4.198l3.238-0.137l-4.679,8.225c-3.87,6.806,2.677,8.857,2.677,8.857l6.959,1.788
		l5.042,7.517c0.177,0.337,0.562,0.604,0.917,0.765c1.318,0.611,2.85,0.05,3.431-1.202c0.453-0.977,0.253-2.001-0.325-2.774
		l-1.293-1.82l-3.27-4.656c-1.021-1.374-2.287-2.077-3.532-2.647c-1.25-0.57-3.886-1.614-3.886-1.614l1.918-2.65l4.485-6.141
		l4.647,3.41c0,0,1.795,1.595,3.456-0.375l1.987-2.339l3.19-3.815c0.007-0.007,0.014-0.014,0.018-0.021
		C468.14,624.257,468.248,623.717,468.293,623.193z"/>
	<path d="M452.58,612.525c1.549-1.773,4.25-1.95,6.024-0.396c1.776,1.553,1.692,3.903,0.138,5.679
		c-1.553,1.766-3.986,2.304-5.76,0.745C451.208,617,451.025,614.302,452.58,612.525z"/>
</g>
<g>
	<path d="M246.367,245.089h-6.345c-0.538,0-0.977-0.438-0.977-0.973c0-0.545,0.438-0.983,0.977-0.983h6.345
		c0.542,0,0.978,0.438,0.978,0.983C247.345,244.649,246.909,245.089,246.367,245.089z"/>
	<path d="M224.205,225.872c-0.542,0-0.978-0.438-0.978-0.976v-6.348c0-0.542,0.436-0.976,0.978-0.976
		c0.538,0,0.976,0.434,0.976,0.976v6.348C225.181,225.433,224.743,225.872,224.205,225.872z"/>
	<path d="M238.938,235.912c-0.389,0-0.754-0.235-0.909-0.623c-0.196-0.505,0.048-1.062,0.551-1.267l5.607-2.203
		c0.503-0.198,1.067,0.049,1.268,0.551c0.195,0.502-0.049,1.067-0.551,1.267l-5.609,2.206
		C239.181,235.887,239.059,235.912,238.938,235.912z"/>
	<path d="M233.711,228.64c-0.196,0-0.391-0.058-0.56-0.181c-0.44-0.313-0.547-0.922-0.231-1.362l3.675-5.176
		c0.314-0.44,0.923-0.542,1.361-0.229c0.44,0.315,0.542,0.923,0.229,1.363l-3.672,5.173
		C234.321,228.495,234.023,228.64,233.711,228.64z"/>
	<path d="M223.352,248.024c-1.339-0.738-4.953-3.142-5.163-6.269c-0.242-3.66,4.455-3.167,5.163-0.458
		c0.707-2.708,5.404-3.195,5.163,0.458C228.301,244.882,224.685,247.286,223.352,248.024z M228.554,260.917
		c-2.626-2.955,8.331-5.352,8.331-16.801c0-15.345-11.172-15.534-13.52-15.534c-2.343,0-13.517,1.363-13.517,15.534
		c0,11.449,10.96,13.846,8.333,16.801c-3.464,3.891-15.434-1.012-15.434,14.106h41.241
		C243.987,259.905,232.018,264.808,228.554,260.917z"/>
	<path d="M206.446,245.089H200.1c-0.54,0-0.978-0.438-0.978-0.973c0-0.545,0.438-0.983,0.978-0.983h6.346
		c0.537,0,0.978,0.438,0.978,0.983C207.424,244.649,206.983,245.089,206.446,245.089z"/>
	<path d="M207.526,235.912c-0.12,0-0.24-0.025-0.355-0.068l-5.611-2.204c-0.502-0.198-0.747-0.765-0.547-1.268
		c0.196-0.504,0.761-0.751,1.268-0.551l5.607,2.206c0.502,0.2,0.749,0.765,0.549,1.267
		C208.287,235.673,207.918,235.912,207.526,235.912z"/>
	<path d="M214.676,228c-0.307,0-0.609-0.147-0.8-0.412l-3.673-5.176c-0.313-0.438-0.211-1.052,0.231-1.358
		c0.44-0.313,1.049-0.211,1.36,0.229l3.673,5.175c0.316,0.438,0.209,1.047-0.228,1.358C215.069,227.937,214.872,228,214.676,228z"/>
</g>
<g>
	<circle cx="209.118" cy="504.496" r="1.109"/>
	<path d="M204.681,486.748h8.875c2.45,0,4.438,1.987,4.438,4.436h-17.75C200.243,488.737,202.233,486.748,204.681,486.748z
		 M209.118,507.826c-1.836,0-3.326-1.494-3.326-3.33c0-1.835,1.49-3.326,3.326-3.326c1.841,0,3.33,1.491,3.33,3.326
		C212.448,506.332,210.959,507.826,209.118,507.826z M189.011,508.936h40.214c3.595,0,6.518-2.926,6.518-6.521v-10.119
		c0-0.618-0.496-1.111-1.109-1.111h-14.422c0-3.669-2.985-6.654-6.656-6.654h-8.875c-3.664,0-6.657,2.983-6.657,6.654h-14.419
		c-0.609,0-1.11,0.493-1.11,1.111v9.984C182.495,506.01,185.418,508.936,189.011,508.936z"/>
	<path d="M229.226,511.152h-40.214c-2.599,0-4.914-1.165-6.517-2.979v19.618c0,0.612,0.496,1.111,1.11,1.111h51.03
		c0.611,0,1.109-0.499,1.109-1.111v-19.618C234.138,509.987,231.826,511.152,229.226,511.152z"/>
</g>
</svg>
